#N canvas 140 22 1028 752 10;
#X obj 94 102 inlet;
#X obj 682 64 inlet;
#X obj 352 697 outlet~;
#X obj 288 553 throw~ \$0-oscA;
#X obj 287 470 osc~;
#X obj 466 475 osc~;
#X obj 617 473 osc~;
#X obj 796 474 osc~;
#X text 96 86 freq;
#X text 679 48 gate;
#N canvas 288 22 940 945 env 1;
#X obj 236 648 outlet~;
#X obj 172 68 inlet;
#X obj 236 503 vline~;
#X obj 473 116 nbx 5 14 -1e+37 1e+37 0 0 empty att empty 0 -8 0 10
-262144 -1 -1 55 256;
#X text 455 115 A;
#X obj 473 132 nbx 5 14 -1e+37 1e+37 0 0 empty dec empty 0 -8 0 10
-262144 -1 -1 200 256;
#X obj 473 148 nbx 5 14 -1e+37 1e+37 0 0 empty sus empty 0 -8 0 10
-262144 -1 -1 0.5 256;
#X obj 473 164 nbx 5 14 -1e+37 1e+37 0 0 empty rel empty 0 -8 0 10
-262144 -1 -1 400 256;
#X text 455 131 D;
#X text 455 147 S;
#X text 455 163 R;
#X obj 137 209 t b;
#X obj 137 279 pack 0 200 0;
#X obj 275 302 pack 1 55 0 0.5 200 55;
#X obj 275 227 t b;
#X text 169 44 gate;
#X obj 171 104 moses 1;
#X msg 272 354 \$1 \$2 \$3 \, \$4 \$5 \$6;
#X obj 442 602 s test;
#X obj 578 486 metro 100;
#X msg 574 433 1;
#X obj 568 389 loadbang;
#X obj 436 565 snapshot~;
#X connect 1 0 16 0;
#X connect 2 0 0 0;
#X connect 2 0 22 0;
#X connect 3 0 13 1;
#X connect 3 0 13 5;
#X connect 5 0 13 4;
#X connect 6 0 13 3;
#X connect 7 0 12 1;
#X connect 11 0 12 0;
#X connect 12 0 2 0;
#X connect 13 0 17 0;
#X connect 14 0 13 0;
#X connect 16 0 11 0;
#X connect 16 1 14 0;
#X connect 17 0 2 0;
#X connect 19 0 22 0;
#X connect 20 0 19 0;
#X connect 21 0 20 0;
#X connect 22 0 18 0;
#X coords 0 -1 1 1 150 80 1 450 100;
#X restore 42 215 pd env;
#X obj 288 514 *~;
#X obj 466 509 *~;
#X obj 617 512 *~;
#X obj 797 514 *~;
#X obj 365 355 * 1;
#X obj 529 354 * 1;
#X obj 688 359 * 1;
#X obj 877 365 * 1;
#X obj 392 305 r trA;
#X obj 556 307 r trB;
#X obj 719 312 r trC;
#X obj 899 317 r trD;
#X obj 180 47 catch~ \$0-oscA;
#X obj 182 77 catch~ \$0-oscB;
#X obj 180 107 catch~ \$0-oscC;
#X obj 182 137 catch~ \$0-oscD;
#X obj 308 160 * 0.01;
#X obj 309 137 r aa;
#X obj 280 186 *~;
#X obj 315 205 * 0.01;
#X obj 287 231 *~;
#X obj 320 254 * 0.01;
#X obj 292 280 *~;
#X obj 327 305 * 0.01;
#X obj 299 331 *~;
#X obj 490 161 * 0.01;
#X obj 462 187 *~;
#X obj 497 206 * 0.01;
#X obj 469 232 *~;
#X obj 502 255 * 0.01;
#X obj 474 281 *~;
#X obj 509 306 * 0.01;
#X obj 481 332 *~;
#X obj 649 155 * 0.01;
#X obj 621 181 *~;
#X obj 656 200 * 0.01;
#X obj 628 226 *~;
#X obj 661 249 * 0.01;
#X obj 633 275 *~;
#X obj 668 300 * 0.01;
#X obj 640 326 *~;
#X obj 836 148 * 0.01;
#X obj 808 174 *~;
#X obj 843 193 * 0.01;
#X obj 815 219 *~;
#X obj 848 242 * 0.01;
#X obj 820 268 *~;
#X obj 855 293 * 0.01;
#X obj 827 319 *~;
#X obj 491 138 r ba;
#X obj 498 183 r bb;
#X obj 503 232 r bc;
#X obj 510 283 r bd;
#X obj 316 182 r ab;
#X obj 321 231 r ac;
#X obj 328 282 r ad;
#X obj 650 132 r ca;
#X obj 657 177 r cb;
#X obj 662 226 r cc;
#X obj 669 277 r cd;
#X obj 837 125 r da;
#X obj 844 170 r db;
#X obj 849 219 r dc;
#X obj 856 270 r dd;
#X obj 288 395 *~;
#X obj 467 396 *~;
#X obj 617 397 *~;
#X obj 795 404 *~;
#X obj 290 431 +~;
#X obj 466 435 +~;
#X obj 617 433 +~;
#X obj 795 434 +~;
#X obj 466 553 throw~ \$0-oscB;
#X obj 618 552 throw~ \$0-oscC;
#X obj 798 554 throw~ \$0-oscD;
#X connect 0 0 15 0;
#X connect 0 0 16 0;
#X connect 0 0 17 0;
#X connect 0 0 18 0;
#X connect 1 0 10 0;
#X connect 4 0 11 0;
#X connect 5 0 12 0;
#X connect 6 0 13 0;
#X connect 7 0 14 0;
#X connect 10 0 11 1;
#X connect 10 0 12 1;
#X connect 10 0 13 1;
#X connect 10 0 14 1;
#X connect 11 0 3 0;
#X connect 12 0 83 0;
#X connect 13 0 84 0;
#X connect 14 0 2 0;
#X connect 14 0 85 0;
#X connect 15 0 75 1;
#X connect 15 0 79 1;
#X connect 16 0 76 1;
#X connect 16 0 80 1;
#X connect 17 0 77 1;
#X connect 17 0 81 1;
#X connect 18 0 78 1;
#X connect 18 0 82 1;
#X connect 19 0 15 1;
#X connect 20 0 16 1;
#X connect 21 0 17 1;
#X connect 22 0 18 1;
#X connect 23 0 29 0;
#X connect 23 0 37 0;
#X connect 23 0 45 0;
#X connect 23 0 53 0;
#X connect 24 0 31 0;
#X connect 24 0 39 0;
#X connect 24 0 47 0;
#X connect 24 0 55 0;
#X connect 25 0 33 0;
#X connect 25 0 41 0;
#X connect 25 0 49 0;
#X connect 25 0 57 0;
#X connect 26 0 35 0;
#X connect 26 0 43 0;
#X connect 26 0 51 0;
#X connect 26 0 59 0;
#X connect 27 0 29 1;
#X connect 28 0 27 0;
#X connect 29 0 75 0;
#X connect 30 0 31 1;
#X connect 31 0 75 0;
#X connect 32 0 33 1;
#X connect 33 0 75 0;
#X connect 34 0 35 1;
#X connect 35 0 75 0;
#X connect 36 0 37 1;
#X connect 37 0 76 0;
#X connect 38 0 39 1;
#X connect 39 0 76 0;
#X connect 40 0 41 1;
#X connect 41 0 76 0;
#X connect 42 0 43 1;
#X connect 43 0 76 0;
#X connect 44 0 45 1;
#X connect 45 0 77 0;
#X connect 46 0 47 1;
#X connect 47 0 77 0;
#X connect 48 0 49 1;
#X connect 49 0 77 0;
#X connect 50 0 51 1;
#X connect 51 0 77 0;
#X connect 52 0 53 1;
#X connect 53 0 78 0;
#X connect 54 0 55 1;
#X connect 55 0 78 0;
#X connect 56 0 57 1;
#X connect 57 0 78 0;
#X connect 58 0 59 1;
#X connect 59 0 78 0;
#X connect 60 0 36 0;
#X connect 61 0 38 0;
#X connect 62 0 40 0;
#X connect 63 0 42 0;
#X connect 64 0 30 0;
#X connect 65 0 32 0;
#X connect 66 0 34 0;
#X connect 67 0 44 0;
#X connect 68 0 46 0;
#X connect 69 0 48 0;
#X connect 70 0 50 0;
#X connect 71 0 52 0;
#X connect 72 0 54 0;
#X connect 73 0 56 0;
#X connect 74 0 58 0;
#X connect 75 0 79 0;
#X connect 76 0 80 0;
#X connect 77 0 81 0;
#X connect 78 0 82 0;
#X connect 79 0 4 0;
#X connect 80 0 5 0;
#X connect 81 0 6 0;
#X connect 82 0 7 0;
