#N canvas 505 22 695 866 10;
#X obj 354 833 dac~;
#X obj 136 276 dsynth-voice;
#X obj 159 102 poly 16 1;
#X obj 136 236 unpack f f;
#X obj 234 275 dsynth-voice;
#X obj 233 237 unpack f f;
#X obj 333 276 dsynth-voice;
#X obj 333 236 unpack f f;
#X obj 449 273 dsynth-voice;
#X obj 449 233 unpack f f;
#X obj 137 391 dsynth-voice;
#X obj 137 351 unpack f f;
#X obj 234 392 dsynth-voice;
#X obj 234 352 unpack f f;
#X obj 334 391 dsynth-voice;
#X obj 334 351 unpack f f;
#X obj 450 388 dsynth-voice;
#X obj 450 348 unpack f f;
#X obj 138 512 dsynth-voice;
#X obj 138 472 unpack f f;
#X obj 235 513 dsynth-voice;
#X obj 235 473 unpack f f;
#X obj 335 512 dsynth-voice;
#X obj 335 472 unpack f f;
#X obj 451 509 dsynth-voice;
#X obj 451 469 unpack f f;
#X obj 139 627 dsynth-voice;
#X obj 139 587 unpack f f;
#X obj 236 628 dsynth-voice;
#X obj 236 588 unpack f f;
#X obj 336 627 dsynth-voice;
#X obj 336 587 unpack f f;
#X obj 452 624 dsynth-voice;
#X obj 452 584 unpack f f;
#X obj 234 201 route 1;
#X obj 334 200 route 2;
#X obj 450 197 route 3;
#X obj 138 315 route 4;
#X obj 235 316 route 5;
#X obj 335 315 route 6;
#X obj 451 312 route 7;
#X obj 139 436 route 8;
#X obj 236 437 route 9;
#X obj 336 436 route 10;
#X obj 452 433 route 11;
#X obj 139 552 route 12;
#X obj 237 551 route 13;
#X obj 337 551 route 14;
#X obj 453 548 route 15;
#X obj 358 793 *~;
#X msg 482 694 1;
#X obj 486 665 loadbang;
#X obj 482 757 lop~ 3;
#X obj 487 723 hsl 128 15 0 1 0 0 empty empty empty -2 -8 0 10 -262144
-1 -1 12700 1;
#X obj 158 129 pack f f f;
#N canvas 121 165 710 557 notein 1;
#X obj 78 38 r gate;
#X obj 273 225 440;
#X obj 99 246 outlet;
#X obj 287 327 outlet;
#X obj 195 26 bng 15 250 50 0 empty empty empty 17 7 0 10 -262144 -1
-1;
#X obj 240 26 bng 15 250 50 0 empty empty empty 17 7 0 10 -262144 -1
-1;
#X obj 72 108 t b f;
#X msg 259 72 440;
#X msg 186 69 1;
#X msg 224 72 0;
#N canvas 0 22 450 300 (subpatch) 0;
#X array freqtable 36 float 1;
#A 0 -0.995236 -0.895236 -0.738094 -0.65238 -0.580951 -0.45238 -0.366666
-0.323809 -0.266666 -0.209523 -0.166666 -0.123809 -0.0952379 -0.0666665
-0.00952375 0.047619 0.133333 0.17619 0.233333 0.27619 0.347618 0.361904
0.419047 0.476189 0.519047 0.590475 0.661903 0.70476 0.761903 0.790475
0.861903 0.890474 0.919046 0.961903 0.976188 1.00476;
#X coords 0 1 35 -1 200 140 1;
#X restore 413 47 graph;
#X obj 325 66 tabread freqtable;
#X obj 325 31 r note;
#X obj 327 187 * 440;
#X obj 355 138 r freq;
#X text 338 138 not used yet;
#X connect 0 0 6 0;
#X connect 1 0 3 0;
#X connect 4 0 7 0;
#X connect 4 0 8 0;
#X connect 5 0 7 0;
#X connect 5 0 9 0;
#X connect 6 0 1 0;
#X connect 6 1 2 0;
#X connect 7 0 1 1;
#X connect 8 0 6 0;
#X connect 9 0 6 0;
#X connect 11 0 13 0;
#X connect 12 0 11 0;
#X connect 13 0 1 1;
#X connect 14 0 13 1;
#X restore 159 71 pd notein;
#X obj 137 200 route 16;
#X connect 1 0 49 0;
#X connect 2 0 54 0;
#X connect 2 1 54 1;
#X connect 2 2 54 2;
#X connect 3 0 1 0;
#X connect 3 1 1 1;
#X connect 4 0 49 0;
#X connect 5 0 4 0;
#X connect 5 1 4 1;
#X connect 6 0 49 0;
#X connect 7 0 6 0;
#X connect 7 1 6 1;
#X connect 8 0 49 0;
#X connect 9 0 8 0;
#X connect 9 1 8 1;
#X connect 10 0 49 0;
#X connect 11 0 10 0;
#X connect 11 1 10 1;
#X connect 12 0 49 0;
#X connect 13 0 12 0;
#X connect 13 1 12 1;
#X connect 14 0 49 0;
#X connect 15 0 14 0;
#X connect 15 1 14 1;
#X connect 16 0 49 0;
#X connect 17 0 16 0;
#X connect 17 1 16 1;
#X connect 18 0 49 0;
#X connect 19 0 18 0;
#X connect 19 1 18 1;
#X connect 20 0 49 0;
#X connect 21 0 20 0;
#X connect 21 1 20 1;
#X connect 22 0 49 0;
#X connect 23 0 22 0;
#X connect 23 1 22 1;
#X connect 24 0 49 0;
#X connect 25 0 24 0;
#X connect 25 1 24 1;
#X connect 26 0 49 0;
#X connect 27 0 26 0;
#X connect 27 1 26 1;
#X connect 28 0 49 0;
#X connect 29 0 28 0;
#X connect 29 1 28 1;
#X connect 30 0 49 0;
#X connect 31 0 30 0;
#X connect 31 1 30 1;
#X connect 32 0 49 0;
#X connect 33 0 32 0;
#X connect 33 1 32 1;
#X connect 34 0 5 0;
#X connect 35 0 7 0;
#X connect 36 0 9 0;
#X connect 37 0 11 0;
#X connect 38 0 13 0;
#X connect 39 0 15 0;
#X connect 40 0 17 0;
#X connect 41 0 19 0;
#X connect 42 0 21 0;
#X connect 43 0 23 0;
#X connect 44 0 25 0;
#X connect 45 0 27 0;
#X connect 46 0 29 0;
#X connect 47 0 31 0;
#X connect 48 0 33 0;
#X connect 49 0 0 0;
#X connect 49 0 0 1;
#X connect 50 0 53 0;
#X connect 51 0 50 0;
#X connect 52 0 49 1;
#X connect 53 0 52 0;
#X connect 54 0 34 0;
#X connect 54 0 35 0;
#X connect 54 0 36 0;
#X connect 54 0 37 0;
#X connect 54 0 38 0;
#X connect 54 0 39 0;
#X connect 54 0 40 0;
#X connect 54 0 41 0;
#X connect 54 0 42 0;
#X connect 54 0 43 0;
#X connect 54 0 44 0;
#X connect 54 0 45 0;
#X connect 54 0 46 0;
#X connect 54 0 47 0;
#X connect 54 0 48 0;
#X connect 54 0 56 0;
#X connect 55 0 2 1;
#X connect 55 1 2 0;
#X connect 56 0 3 0;
