#N canvas 245 22 1028 752 10;
#X obj 94 102 inlet;
#X obj 682 64 inlet;
#X obj 352 697 outlet~;
#X obj 292 492 osc~;
#X obj 471 497 osc~;
#X obj 622 495 osc~;
#X text 96 86 freq;
#X text 679 48 gate;
#N canvas 288 22 940 945 env 0;
#X obj 236 648 outlet~;
#X obj 172 68 inlet;
#X obj 236 503 vline~;
#X obj 473 116 nbx 5 14 -1e+37 1e+37 0 0 empty att empty 0 -8 0 10
-262144 -1 -1 55 256;
#X text 455 115 A;
#X obj 473 132 nbx 5 14 -1e+37 1e+37 0 0 empty dec empty 0 -8 0 10
-262144 -1 -1 200 256;
#X obj 473 148 nbx 5 14 -1e+37 1e+37 0 0 empty sus empty 0 -8 0 10
-262144 -1 -1 0.5 256;
#X obj 473 164 nbx 5 14 -1e+37 1e+37 0 0 empty rel empty 0 -8 0 10
-262144 -1 -1 400 256;
#X text 455 131 D;
#X text 455 147 S;
#X text 455 163 R;
#X obj 137 209 t b;
#X obj 137 279 pack 0 200 0;
#X obj 275 302 pack 1 55 0 0.5 200 55;
#X obj 275 227 t b;
#X text 169 44 gate;
#X obj 171 104 moses 1;
#X msg 272 354 \$1 \$2 \$3 \, \$4 \$5 \$6;
#X text 417 678 switch control;
#X obj 433 650 outlet;
#X obj 446 480 delay 200;
#X msg 447 530 0;
#X connect 1 0 16 0;
#X connect 2 0 0 0;
#X connect 3 0 13 1;
#X connect 3 0 13 5;
#X connect 5 0 13 4;
#X connect 6 0 13 3;
#X connect 7 0 12 1;
#X connect 7 0 20 1;
#X connect 11 0 12 0;
#X connect 11 0 20 0;
#X connect 12 0 2 0;
#X connect 13 0 17 0;
#X connect 14 0 13 0;
#X connect 16 0 11 0;
#X connect 16 1 14 0;
#X connect 16 1 19 0;
#X connect 17 0 2 0;
#X connect 20 0 21 0;
#X connect 21 0 19 0;
#X coords 0 0 1 1 150 80 0;
#X restore 47 217 pd env;
#X obj 293 536 *~;
#X obj 471 531 *~;
#X obj 622 534 *~;
#X obj 370 377 * 1;
#X obj 534 376 * 1;
#X obj 693 381 * 1;
#X obj 368 293 r trA;
#X obj 528 297 r trB;
#X obj 689 297 r trC;
#X obj 308 160 * 0.01;
#X obj 309 137 r aa;
#X obj 280 186 *~;
#X obj 315 205 * 0.01;
#X obj 287 231 *~;
#X obj 320 254 * 0.01;
#X obj 292 280 *~;
#X obj 490 161 * 0.01;
#X obj 462 187 *~;
#X obj 497 206 * 0.01;
#X obj 469 232 *~;
#X obj 502 255 * 0.01;
#X obj 474 281 *~;
#X obj 649 155 * 0.01;
#X obj 621 181 *~;
#X obj 656 200 * 0.01;
#X obj 628 226 *~;
#X obj 661 249 * 0.01;
#X obj 633 275 *~;
#X obj 491 138 r ba;
#X obj 498 183 r bb;
#X obj 503 232 r bc;
#X obj 316 182 r ab;
#X obj 321 231 r ac;
#X obj 650 132 r ca;
#X obj 657 177 r cb;
#X obj 662 226 r cc;
#X obj 293 417 *~;
#X obj 472 418 *~;
#X obj 622 419 *~;
#X obj 295 453 +~;
#X obj 471 457 +~;
#X obj 622 455 +~;
#X obj 623 574 s~ \$0-oscC;
#X obj 471 575 s~ \$0-oscB;
#X obj 293 575 s~ \$0-oscA;
#X obj 180 47 r~ \$0-oscA;
#X obj 182 76 r~ \$0-oscB;
#X obj 180 107 r~ \$0-oscC;
#X obj 80 442 switch~;
#X obj 381 44 r~ \$0-oscA;
#X obj 383 73 r~ \$0-oscB;
#X obj 381 104 r~ \$0-oscC;
#X obj 548 43 r~ \$0-oscA;
#X obj 550 72 r~ \$0-oscB;
#X obj 548 103 r~ \$0-oscC;
#X obj 368 321 t b f;
#X obj 528 319 t b f;
#X obj 689 328 t b f;
#X obj 369 349 f;
#X obj 530 348 f;
#X obj 690 354 f;
#X obj 280 349 hip~ 20;
#X obj 460 348 hip~ 20;
#X obj 613 351 hip~ 20;
#X connect 0 0 67 0;
#X connect 0 0 68 0;
#X connect 0 0 69 0;
#X connect 1 0 8 0;
#X connect 3 0 9 0;
#X connect 4 0 10 0;
#X connect 5 0 11 0;
#X connect 8 0 9 1;
#X connect 8 0 10 1;
#X connect 8 0 11 1;
#X connect 8 1 57 0;
#X connect 9 0 53 0;
#X connect 9 0 2 0;
#X connect 10 0 52 0;
#X connect 11 0 51 0;
#X connect 12 0 48 1;
#X connect 12 0 45 1;
#X connect 13 0 49 1;
#X connect 13 0 46 1;
#X connect 14 0 50 1;
#X connect 14 0 47 1;
#X connect 15 0 64 0;
#X connect 16 0 65 0;
#X connect 17 0 66 0;
#X connect 18 0 20 1;
#X connect 19 0 18 0;
#X connect 20 0 70 0;
#X connect 21 0 22 1;
#X connect 22 0 70 0;
#X connect 23 0 24 1;
#X connect 24 0 70 0;
#X connect 25 0 26 1;
#X connect 26 0 71 0;
#X connect 27 0 28 1;
#X connect 28 0 71 0;
#X connect 29 0 30 1;
#X connect 30 0 71 0;
#X connect 31 0 32 1;
#X connect 32 0 72 0;
#X connect 33 0 34 1;
#X connect 34 0 72 0;
#X connect 35 0 36 1;
#X connect 36 0 72 0;
#X connect 37 0 25 0;
#X connect 38 0 27 0;
#X connect 39 0 29 0;
#X connect 40 0 21 0;
#X connect 41 0 23 0;
#X connect 42 0 31 0;
#X connect 43 0 33 0;
#X connect 44 0 35 0;
#X connect 45 0 48 0;
#X connect 46 0 49 0;
#X connect 47 0 50 0;
#X connect 48 0 3 0;
#X connect 49 0 4 0;
#X connect 50 0 5 0;
#X connect 54 0 20 0;
#X connect 55 0 22 0;
#X connect 56 0 24 0;
#X connect 58 0 26 0;
#X connect 59 0 28 0;
#X connect 60 0 30 0;
#X connect 61 0 32 0;
#X connect 62 0 34 0;
#X connect 63 0 36 0;
#X connect 64 0 67 0;
#X connect 64 1 12 1;
#X connect 65 0 68 0;
#X connect 65 1 13 1;
#X connect 66 0 69 0;
#X connect 66 1 14 1;
#X connect 67 0 12 0;
#X connect 68 0 13 0;
#X connect 69 0 14 0;
#X connect 70 0 45 0;
#X connect 71 0 46 0;
#X connect 72 0 47 0;
