#N canvas 563 22 625 752 10;
#X obj 354 833 dac~;
#X obj 159 102 poly 16 1;
#X obj 136 236 unpack f f;
#X obj 233 237 unpack f f;
#X obj 333 236 unpack f f;
#X obj 449 233 unpack f f;
#X obj 137 351 unpack f f;
#X obj 234 352 unpack f f;
#X obj 334 351 unpack f f;
#X obj 450 348 unpack f f;
#X obj 138 472 unpack f f;
#X obj 235 473 unpack f f;
#X obj 335 472 unpack f f;
#X obj 451 469 unpack f f;
#X obj 139 587 unpack f f;
#X obj 236 588 unpack f f;
#X obj 336 587 unpack f f;
#X obj 452 584 unpack f f;
#X obj 234 201 route 1;
#X obj 334 200 route 2;
#X obj 450 197 route 3;
#X obj 138 315 route 4;
#X obj 235 316 route 5;
#X obj 335 315 route 6;
#X obj 451 312 route 7;
#X obj 139 436 route 8;
#X obj 236 437 route 9;
#X obj 336 436 route 10;
#X obj 452 433 route 11;
#X obj 139 552 route 12;
#X obj 237 551 route 13;
#X obj 337 551 route 14;
#X obj 453 548 route 15;
#X obj 358 793 *~;
#X msg 482 694 1;
#X obj 486 665 loadbang;
#X obj 482 757 lop~ 3;
#X obj 487 723 hsl 128 15 0 1 0 0 empty empty empty -2 -8 0 10 -262144
-1 -1 12700 1;
#X obj 158 129 pack f f f;
#N canvas 117 92 710 557 notein 1;
#X obj 78 38 r gate;
#X obj 272 300 440;
#X obj 99 246 outlet;
#X obj 286 402 outlet;
#X obj 195 26 bng 15 250 50 0 empty empty empty 17 7 0 10 -262144 -1
-1;
#X obj 240 26 bng 15 250 50 0 empty empty empty 17 7 0 10 -262144 -1
-1;
#X obj 72 108 t b f;
#X msg 259 72 440;
#X msg 186 69 1;
#X msg 224 72 0;
#N canvas 0 22 450 300 (subpatch) 0;
#X array freqtable 36 float 1;
#A 0 -0.995236 -0.895236 -0.738094 -0.65238 -0.580951 -0.45238 -0.366666
-0.323809 -0.266666 -0.209523 -0.166666 -0.123809 -0.0952379 -0.0666665
-0.00952375 0.047619 0.133333 0.17619 0.233333 0.27619 0.347618 0.361904
0.419047 0.476189 0.519047 0.590475 0.661903 0.70476 0.761903 0.790475
0.861903 0.890474 0.919046 0.961903 0.976188 1.00476;
#X coords 0 1 35 -1 200 140 1;
#X restore 413 47 graph;
#X obj 326 68 tabread freqtable;
#X obj 326 33 r note;
#X obj 326 262 * 440;
#X obj 353 163 r pitch;
#X obj 353 213 mtof;
#X msg 420 298 \; freqtable resize \$1;
#X obj 421 250 r arraysize;
#X connect 0 0 6 0;
#X connect 1 0 3 0;
#X connect 4 0 7 0;
#X connect 4 0 8 0;
#X connect 5 0 7 0;
#X connect 5 0 9 0;
#X connect 6 0 1 0;
#X connect 6 1 2 0;
#X connect 7 0 1 1;
#X connect 8 0 6 0;
#X connect 9 0 6 0;
#X connect 11 0 13 0;
#X connect 12 0 11 0;
#X connect 13 0 1 1;
#X connect 14 0 15 0;
#X connect 15 0 13 1;
#X connect 17 0 16 0;
#X restore 159 71 pd notein;
#X obj 137 200 route 16;
#N canvas 129 22 728 419 params 1;
#X text 247 44 keep all the parameter controls here;
#X floatatom 353 160 5 0 0 0 - - ab;
#X floatatom 391 140 5 0 0 0 - - ba;
#X floatatom 353 179 5 0 0 0 - - ac;
#X floatatom 353 197 5 0 0 0 - - ad;
#X floatatom 391 180 5 0 0 0 - - bc;
#X floatatom 391 198 5 0 0 0 - - bd;
#X floatatom 427 141 5 0 0 0 - - ca;
#X floatatom 465 140 5 0 0 0 - - da;
#X floatatom 427 160 5 0 0 0 - - cb;
#X floatatom 429 198 5 0 0 0 - - cd;
#X floatatom 465 159 5 0 0 0 - - db;
#X floatatom 465 178 5 0 0 0 - - dc;
#X text 363 119 A;
#X text 400 121 B;
#X text 435 122 C;
#X text 475 122 D;
#X text 326 140 A;
#X text 326 163 B;
#X text 327 197 D;
#X text 325 180 C;
#X floatatom 353 140 5 0 0 0 - - aa;
#X floatatom 391 160 5 0 0 0 - - bb;
#X floatatom 429 178 5 0 0 0 - - cc;
#X floatatom 467 199 5 0 0 0 - - dd;
#X floatatom 352 222 5 0 0 0 - - trA;
#X floatatom 390 223 5 0 0 0 - - trB;
#X floatatom 428 223 5 0 0 0 - - trC;
#X floatatom 466 224 5 0 0 0 - - trD;
#X msg 562 196 1;
#X obj 558 161 loadbang;
#X text 482 121 *;
#X text 305 222 transp;
#X msg 601 196 0.5;
#X msg 636 195 2;
#X obj 114 141 vsl 15 128 2 3000 1 0 att empty A 4 -9 0 10 -262144
-1 -1 2400 1;
#X obj 132 141 vsl 15 128 2 8000 1 0 dec empty D 4 -9 0 10 -262144
-1 -1 9300 1;
#X obj 172 141 vsl 15 128 2 8000 1 0 rel empty R 4 -9 0 10 -262144
-1 -1 8600 1;
#X obj 151 140 vsl 15 128 0 1 0 0 sus empty S 4 -9 0 10 -262144 -1
-1 5600 1;
#X floatatom 89 286 5 0 0 0 - - -;
#X floatatom 107 305 5 0 0 0 - - -;
#X floatatom 128 325 5 0 0 0 - - -;
#X floatatom 160 347 5 0 0 0 - - -;
#X connect 29 0 28 0;
#X connect 29 0 25 0;
#X connect 30 0 29 0;
#X connect 30 0 33 0;
#X connect 30 0 34 0;
#X connect 33 0 27 0;
#X connect 34 0 26 0;
#X connect 35 0 39 0;
#X connect 36 0 40 0;
#X connect 37 0 42 0;
#X connect 38 0 41 0;
#X restore 332 89 pd params;
#X obj 139 627 dsynth-voice;
#X obj 137 391 dsynth-voice;
#X obj 136 276 dsynth-voice;
#X obj 234 275 dsynth-voice;
#X obj 333 276 dsynth-voice;
#X obj 449 273 dsynth-voice;
#X obj 234 392 dsynth-voice;
#X obj 334 391 dsynth-voice;
#X obj 450 388 dsynth-voice;
#X obj 138 512 dsynth-voice;
#X obj 235 513 dsynth-voice;
#X obj 335 512 dsynth-voice;
#X obj 451 509 dsynth-voice;
#X obj 236 628 dsynth-voice;
#X obj 336 627 dsynth-voice;
#X obj 452 624 dsynth-voice;
#N canvas 830 23 450 300 init 0;
#X msg 84 83 55;
#X obj 120 44 loadbang;
#X msg 114 84 200;
#X msg 192 82 400;
#X obj 71 124 s att;
#X obj 208 118 s rel;
#X obj 158 124 s sus;
#X obj 111 123 s dec;
#X msg 156 83 0.5;
#X connect 0 0 4 0;
#X connect 1 0 0 0;
#X connect 1 0 2 0;
#X connect 1 0 8 0;
#X connect 1 0 3 0;
#X connect 2 0 7 0;
#X connect 3 0 5 0;
#X connect 8 0 6 0;
#X restore 368 46 pd init;
#X connect 1 0 38 0;
#X connect 1 1 38 1;
#X connect 1 2 38 2;
#X connect 2 0 44 0;
#X connect 2 1 44 1;
#X connect 3 0 45 0;
#X connect 3 1 45 1;
#X connect 4 0 46 0;
#X connect 4 1 46 1;
#X connect 5 0 47 0;
#X connect 5 1 47 1;
#X connect 6 0 43 0;
#X connect 6 1 43 1;
#X connect 7 0 48 0;
#X connect 7 1 48 1;
#X connect 8 0 49 0;
#X connect 8 1 49 1;
#X connect 9 0 50 0;
#X connect 9 1 50 1;
#X connect 10 0 51 0;
#X connect 10 1 51 1;
#X connect 11 0 52 0;
#X connect 11 1 52 1;
#X connect 12 0 53 0;
#X connect 12 1 53 1;
#X connect 13 0 54 0;
#X connect 13 1 54 1;
#X connect 14 0 42 0;
#X connect 14 1 42 1;
#X connect 15 0 55 0;
#X connect 15 1 55 1;
#X connect 16 0 56 0;
#X connect 16 1 56 1;
#X connect 17 0 57 0;
#X connect 17 1 57 1;
#X connect 18 0 3 0;
#X connect 19 0 4 0;
#X connect 20 0 5 0;
#X connect 21 0 6 0;
#X connect 22 0 7 0;
#X connect 23 0 8 0;
#X connect 24 0 9 0;
#X connect 25 0 10 0;
#X connect 26 0 11 0;
#X connect 27 0 12 0;
#X connect 28 0 13 0;
#X connect 29 0 14 0;
#X connect 30 0 15 0;
#X connect 31 0 16 0;
#X connect 32 0 17 0;
#X connect 33 0 0 0;
#X connect 33 0 0 1;
#X connect 34 0 37 0;
#X connect 35 0 34 0;
#X connect 36 0 33 1;
#X connect 37 0 36 0;
#X connect 38 0 18 0;
#X connect 38 0 19 0;
#X connect 38 0 20 0;
#X connect 38 0 21 0;
#X connect 38 0 22 0;
#X connect 38 0 23 0;
#X connect 38 0 24 0;
#X connect 38 0 25 0;
#X connect 38 0 26 0;
#X connect 38 0 27 0;
#X connect 38 0 28 0;
#X connect 38 0 29 0;
#X connect 38 0 30 0;
#X connect 38 0 31 0;
#X connect 38 0 32 0;
#X connect 38 0 40 0;
#X connect 39 0 1 1;
#X connect 39 1 1 0;
#X connect 40 0 2 0;
#X connect 42 0 33 0;
#X connect 43 0 33 0;
#X connect 44 0 33 0;
#X connect 45 0 33 0;
#X connect 46 0 33 0;
#X connect 47 0 33 0;
#X connect 48 0 33 0;
#X connect 49 0 33 0;
#X connect 50 0 33 0;
#X connect 51 0 33 0;
#X connect 52 0 33 0;
#X connect 53 0 33 0;
#X connect 54 0 33 0;
#X connect 55 0 33 0;
#X connect 56 0 33 0;
#X connect 57 0 33 0;
