#N canvas 973 152 722 783 10;
#X obj 357 679 outlet~;
#X obj 128 53 inlet;
#X obj 487 58 inlet;
#X text 488 38 gate;
#N canvas 325 1 940 945 env 0;
#X obj 236 648 outlet~;
#X obj 172 68 inlet;
#X obj 236 503 vline~;
#X obj 473 116 nbx 5 14 -1e+037 1e+037 0 0 empty att empty 0 -8 0 10
-262144 -1 -1 55 256;
#X text 455 115 A;
#X obj 473 132 nbx 5 14 -1e+037 1e+037 0 0 empty dec empty 0 -8 0 10
-262144 -1 -1 200 256;
#X obj 473 148 nbx 5 14 -1e+037 1e+037 0 0 empty sus empty 0 -8 0 10
-262144 -1 -1 0.5 256;
#X obj 473 164 nbx 5 14 -1e+037 1e+037 0 0 empty rel empty 0 -8 0 10
-262144 -1 -1 400 256;
#X text 455 131 D;
#X text 455 147 S;
#X text 455 163 R;
#N canvas 1021 23 450 300 init 0;
#X msg 84 83 55;
#X obj 120 44 loadbang;
#X msg 114 84 200;
#X msg 192 82 400;
#X obj 71 124 s att;
#X obj 208 118 s rel;
#X obj 158 124 s sus;
#X obj 111 123 s dec;
#X msg 156 83 0.5;
#X connect 0 0 4 0;
#X connect 1 0 0 0;
#X connect 1 0 2 0;
#X connect 1 0 8 0;
#X connect 1 0 3 0;
#X connect 2 0 7 0;
#X connect 3 0 5 0;
#X connect 8 0 6 0;
#X restore 696 46 pd init;
#X obj 137 209 t b;
#X obj 137 279 pack 0 200 0;
#X obj 275 302 pack 1 55 0 0.5 200 55;
#X obj 275 227 t b;
#X text 169 44 gate;
#X obj 171 104 moses 1;
#X connect 1 0 17 0;
#X connect 2 0 0 0;
#X connect 3 0 14 1;
#X connect 3 0 14 5;
#X connect 5 0 14 4;
#X connect 6 0 14 3;
#X connect 7 0 13 1;
#X connect 12 0 13 0;
#X connect 13 0 2 0;
#X connect 14 0 2 0;
#X connect 15 0 14 0;
#X connect 17 0 12 0;
#X connect 17 1 15 0;
#X coords 0 -1 1 1 150 80 1 450 100;
#X restore 80 206 pd env;
#X obj 402 542 *~;
#X obj 416 463 osc~;
#X obj 408 236 osc~;
#X text 124 36 freq;
#X obj 412 317 *~;
#X obj 454 286 * 2;
#X floatatom 469 266 5 0 0 0 - - -;
#X obj 408 191 * 1;
#X floatatom 423 164 5 0 0 0 - - -;
#X obj 415 418 +~;
#X obj 414 363 *~;
#X connect 1 0 10 0;
#X connect 1 0 12 0;
#X connect 1 0 14 1;
#X connect 2 0 4 0;
#X connect 4 0 15 1;
#X connect 4 0 5 0;
#X connect 5 0 0 0;
#X connect 6 0 5 1;
#X connect 7 0 9 0;
#X connect 9 0 15 0;
#X connect 10 0 9 1;
#X connect 11 0 10 1;
#X connect 12 0 7 0;
#X connect 13 0 12 1;
#X connect 14 0 6 0;
#X connect 15 0 14 0;
