#N canvas 563 22 640 752 10;
#X obj 136 236 unpack f f;
#X obj 233 237 unpack f f;
#X obj 333 236 unpack f f;
#X obj 449 233 unpack f f;
#X obj 137 351 unpack f f;
#X obj 234 352 unpack f f;
#X obj 334 351 unpack f f;
#X obj 450 348 unpack f f;
#X obj 138 472 unpack f f;
#X obj 235 473 unpack f f;
#X obj 335 472 unpack f f;
#X obj 451 469 unpack f f;
#X obj 439 687 *~;
#X obj 468 551 loadbang;
#X obj 464 643 lop~ 3;
#X obj 469 609 hsl 128 15 0 1 0 0 empty empty empty -2 -8 0 10 -262144
-1 -1 6350 1;
#X obj 158 129 pack f f f;
#N canvas 117 92 710 557 notein 0;
#X obj 78 38 r gate;
#X obj 272 300 440;
#X obj 99 246 outlet;
#X obj 286 402 outlet;
#X obj 195 26 bng 15 250 50 0 empty teston empty 17 7 0 10 -262144
-1 -1;
#X obj 240 26 bng 15 250 50 0 empty testoff empty 17 7 0 10 -262144
-1 -1;
#X obj 72 108 t b f;
#X msg 259 72 440;
#X msg 186 69 1;
#X msg 224 72 0;
#N canvas 0 22 450 300 (subpatch) 0;
#X array freqtable 36 float 1;
#A 0 -0.995236 -0.895236 -0.738094 -0.65238 -0.580951 -0.45238 -0.366666
-0.323809 -0.266666 -0.209523 -0.166666 -0.123809 -0.0952379 -0.0666665
-0.00952375 0.047619 0.133333 0.17619 0.233333 0.27619 0.347618 0.361904
0.419047 0.476189 0.519047 0.590475 0.661903 0.70476 0.761903 0.790475
0.861903 0.890474 0.919046 0.961903 0.976188 1.00476;
#X coords 0 1 35 -1 200 140 1;
#X restore 413 47 graph;
#X obj 326 68 tabread freqtable;
#X obj 326 33 r note;
#X obj 326 262 * 440;
#X obj 353 163 r pitch;
#X obj 353 213 mtof;
#X msg 420 298 \; freqtable resize \$1;
#X obj 421 250 r arraysize;
#X connect 0 0 6 0;
#X connect 1 0 3 0;
#X connect 4 0 7 0;
#X connect 4 0 8 0;
#X connect 5 0 7 0;
#X connect 5 0 9 0;
#X connect 6 0 1 0;
#X connect 6 1 2 0;
#X connect 7 0 1 1;
#X connect 8 0 6 0;
#X connect 9 0 6 0;
#X connect 11 0 13 0;
#X connect 12 0 11 0;
#X connect 13 0 1 1;
#X connect 14 0 15 0;
#X connect 15 0 13 1;
#X connect 17 0 16 0;
#X restore 159 71 pd notein;
#N canvas 107 184 728 419 params 1;
#X text 247 44 keep all the parameter controls here;
#X floatatom 353 160 5 0 0 0 - - ab;
#X floatatom 391 140 5 0 0 0 - - ba;
#X floatatom 353 179 5 0 0 0 - - ac;
#X floatatom 391 180 5 0 0 0 - - bc;
#X floatatom 427 141 5 0 0 0 - - ca;
#X floatatom 427 160 5 0 0 0 - - cb;
#X text 363 119 A;
#X text 400 121 B;
#X text 435 122 C;
#X text 326 140 A;
#X text 326 163 B;
#X text 325 180 C;
#X floatatom 353 140 5 0 0 0 - - aa;
#X floatatom 391 160 5 0 0 0 - - bb;
#X floatatom 429 178 5 0 0 0 - - cc;
#X floatatom 352 222 5 0 0 0 - - trA;
#X floatatom 390 223 5 0 0 0 - - trB;
#X floatatom 428 223 5 0 0 0 - - trC;
#X msg 562 196 1;
#X obj 562 166 loadbang;
#X text 305 222 transp;
#X obj 114 141 vsl 15 128 2 3000 1 0 att empty A 4 -9 0 10 -262144
-1 -1 3500 1;
#X obj 132 141 vsl 15 128 2 8000 1 0 dec empty D 4 -9 0 10 -262144
-1 -1 11500 1;
#X obj 172 141 vsl 15 128 2 8000 1 0 rel empty R 4 -9 0 10 -262144
-1 -1 7100 1;
#X obj 151 140 vsl 15 128 0 1 0 0 sus empty S 4 -9 0 10 -262144 -1
-1 0 1;
#X floatatom 89 286 5 0 0 0 - - -;
#X floatatom 107 305 5 0 0 0 - - -;
#X floatatom 128 325 5 0 0 0 - - -;
#X floatatom 160 347 5 0 0 0 - - -;
#X text 353 118 *;
#X obj 461 313 bng 15 250 50 0 teston empty empty 17 7 0 10 -262144
-1 -1;
#X text 458 294 on;
#X obj 532 314 bng 15 250 50 0 testoff empty empty 17 7 0 10 -262144
-1 -1;
#X text 532 296 off;
#X obj 512 172 bng 15 250 50 0 empty empty empty 17 7 0 10 -262144
-1 -1;
#X connect 19 0 16 0;
#X connect 19 0 17 0;
#X connect 19 0 18 0;
#X connect 20 0 19 0;
#X connect 22 0 26 0;
#X connect 23 0 27 0;
#X connect 24 0 29 0;
#X connect 25 0 28 0;
#X connect 35 0 13 0;
#X connect 35 0 2 0;
#X connect 35 0 5 0;
#X connect 35 0 1 0;
#X connect 35 0 14 0;
#X connect 35 0 6 0;
#X connect 35 0 3 0;
#X connect 35 0 4 0;
#X connect 35 0 15 0;
#X connect 35 0 16 0;
#X connect 35 0 17 0;
#X connect 35 0 18 0;
#X restore 332 88 pd params;
#X obj 136 276 dsynth-voice;
#N canvas 155 121 450 300 init 0;
#X obj 120 44 loadbang;
#X msg 131 161 \; trA 1 \; trB 3 \; trC 0.5;
#X msg 239 158 \; att 55 \; dec 200 \; sus 0.5 \; rel 400;
#X msg 52 156 \; aa 0 \; ab 95 \; ac 65 \; ba 0 \; bb 0 \; bc 0 \;
ca 0 \; cb 0 \; cc 0;
#X connect 0 0 3 0;
#X connect 0 0 1 0;
#X connect 0 0 2 0;
#X restore 368 46 pd init;
#X obj 437 715 dac~;
#X obj 159 102 poly 12 1;
#X msg 464 580 0.5;
#X obj 137 391 dsynth-voice;
#X obj 234 275 dsynth-voice;
#X obj 333 276 dsynth-voice;
#X obj 449 273 dsynth-voice;
#X obj 234 392 dsynth-voice;
#X obj 334 391 dsynth-voice;
#X obj 450 388 dsynth-voice;
#X obj 138 512 dsynth-voice;
#X obj 235 513 dsynth-voice;
#X obj 335 512 dsynth-voice;
#X obj 451 509 dsynth-voice;
#X obj 159 157 route 1 2 3 4 5 6 7 8 9 10 11 12;
#X connect 0 0 19 0;
#X connect 0 1 19 1;
#X connect 1 0 25 0;
#X connect 1 1 25 1;
#X connect 2 0 26 0;
#X connect 2 1 26 1;
#X connect 3 0 27 0;
#X connect 3 1 27 1;
#X connect 4 0 24 0;
#X connect 4 1 24 1;
#X connect 5 0 28 0;
#X connect 5 1 28 1;
#X connect 6 0 29 0;
#X connect 6 1 29 1;
#X connect 7 0 30 0;
#X connect 7 1 30 1;
#X connect 8 0 31 0;
#X connect 8 1 31 1;
#X connect 9 0 32 0;
#X connect 9 1 32 1;
#X connect 10 0 33 0;
#X connect 10 1 33 1;
#X connect 11 0 34 0;
#X connect 11 1 34 1;
#X connect 12 0 21 0;
#X connect 12 0 21 1;
#X connect 13 0 23 0;
#X connect 14 0 12 1;
#X connect 15 0 14 0;
#X connect 16 0 35 0;
#X connect 17 0 22 1;
#X connect 17 1 22 0;
#X connect 19 0 12 0;
#X connect 22 0 16 0;
#X connect 22 1 16 1;
#X connect 22 2 16 2;
#X connect 23 0 15 0;
#X connect 24 0 12 0;
#X connect 25 0 12 0;
#X connect 26 0 12 0;
#X connect 27 0 12 0;
#X connect 28 0 12 0;
#X connect 29 0 12 0;
#X connect 30 0 12 0;
#X connect 31 0 12 0;
#X connect 32 0 12 0;
#X connect 33 0 12 0;
#X connect 34 0 12 0;
#X connect 35 0 0 0;
#X connect 35 1 1 0;
#X connect 35 2 2 0;
#X connect 35 3 3 0;
#X connect 35 4 4 0;
#X connect 35 5 5 0;
#X connect 35 6 6 0;
#X connect 35 7 7 0;
#X connect 35 8 8 0;
#X connect 35 9 9 0;
#X connect 35 10 10 0;
#X connect 35 11 11 0;
